<?xml version="1.0" encoding="UTF-8" standalone="no"?>
<!-- Created with Inkscape (http://www.inkscape.org/) -->

<svg
   xmlns:osb="http://www.openswatchbook.org/uri/2009/osb"
   xmlns:dc="http://purl.org/dc/elements/1.1/"
   xmlns:cc="http://creativecommons.org/ns#"
   xmlns:rdf="http://www.w3.org/1999/02/22-rdf-syntax-ns#"
   xmlns:svg="http://www.w3.org/2000/svg"
   xmlns="http://www.w3.org/2000/svg"
   xmlns:sodipodi="http://sodipodi.sourceforge.net/DTD/sodipodi-0.dtd"
   xmlns:inkscape="http://www.inkscape.org/namespaces/inkscape"
   width="48"
   height="48"
   viewBox="0 0 48.000001 48.000001"
   id="svg4826"
   version="1.1"
   inkscape:version="0.92.3 (unknown)"
   sodipodi:docname="icon.svg"
   enable-background="new"
   inkscape:export-filename="icon_libvlcsharp.png"
   inkscape:export-xdpi="128"
   inkscape:export-ydpi="128">
  <defs
     id="defs4828">
    <linearGradient
       id="linearGradient7664"
       osb:paint="solid">
      <stop
         style="stop-color:#000000;stop-opacity:1;"
         offset="0"
         id="stop7662" />
    </linearGradient>
    <clipPath
       clipPathUnits="userSpaceOnUse"
       id="clipPath4813">
      <path
         id="path4815"
         d="m 256,24 c -10,0 -16.56131,4.44436 -22,10 -7.51989,7.68159 -14,30 -14,30 l -84,252 -34,0 c -10.63636,0 -20.71454,9.30699 -24,20 L 43,456 c -4.67669,16.03434 -3,31.99999 19,32 l 194,0 194,0 c 22,-10e-6 23.67669,-15.96566 19,-32 L 434,336 c -3.28546,-10.69301 -13.36364,-20 -24,-20 l -34,0 -84,-252 c 0,0 -6.48011,-22.31841 -14,-30 -5.43869,-5.55564 -12,-10 -22,-10 z"
         style="fill:#ff8800"
         inkscape:connector-curvature="0" />
    </clipPath>
    <clipPath
       clipPathUnits="userSpaceOnUse"
       id="clipPath4792">
      <path
         style="fill:#ff8800"
         d="m 48.196759,963.10825 c -1.65441,1.23855 -2.321076,3.2256 -3.761719,7.51954 -1.440643,4.29394 -1.503906,4.51171 -1.503906,4.51171 l -5.265625,15.79688 -6.015625,18.05082 -3.007812,9.0234 -6.34375,0 c -2,0 -3.860873,1.5107 -4.445313,3.5039 l -3.503906,11.9199 c -1.144783,3.9115 -2.279638,7.7947 -3.429687,11.7266 -0.481394,1.6434 0.0011,2.852 0.777343,3.6875 0.481014,0.5172 1.074588,0.8913 1.621094,1.1406 0.54688,0.2429 0.920775,0.3731 1.351562,0.3731 1.004345,0 18.539258,-0.01 36.572266,-0.01 l 0,0 c 18.033008,0 35.567921,0.01 36.572266,0.01 0.430787,0 0.804682,-0.1302 1.351562,-0.3731 0.546506,-0.2493 1.14008,-0.6234 1.621094,-1.1406 0.776228,-0.8355 1.258738,-2.0441 0.777344,-3.6875 -1.150049,-3.9319 -2.284905,-7.8151 -3.429688,-11.7266 l -3.503906,-11.9199 c -0.58444,-1.9932 -2.445313,-3.5039 -4.445313,-3.5039 l -6.34375,0 -3.007812,-9.0234 -6.015625,-18.05082 -5.265625,-15.79688 c 0,0 -0.06885,-0.23443 -1.503906,-4.51171 -1.435052,-4.27728 -2.097358,-6.25133 -3.761719,-7.51954 -0.831195,-0.63336 -1.999923,-0.74609 -3.044922,-0.74609 -1.044999,0 -2.208378,0.11982 -3.044922,0.74609 z"
         id="path4794"
         inkscape:connector-curvature="0"
         sodipodi:nodetypes="szccccscccccsccscccccscccczsas" />
    </clipPath>
  </defs>
  <sodipodi:namedview
     id="base"
     pagecolor="#ffffff"
     bordercolor="#666666"
     borderopacity="1.0"
     inkscape:pageopacity="0.0"
     inkscape:pageshadow="2"
     inkscape:zoom="15.999999"
     inkscape:cx="26.768938"
     inkscape:cy="18.661451"
     inkscape:document-units="px"
     inkscape:current-layer="layer3"
     showgrid="false"
     units="px"
     inkscape:window-width="1920"
     inkscape:window-height="1043"
     inkscape:window-x="1920"
     inkscape:window-y="0"
     inkscape:window-maximized="1"
     inkscape:snap-bbox="true"
     inkscape:bbox-paths="true"
     inkscape:bbox-nodes="true"
     inkscape:snap-bbox-edge-midpoints="true"
     inkscape:snap-bbox-midpoints="true"
     inkscape:object-paths="true"
     inkscape:snap-intersection-paths="true"
     inkscape:snap-smooth-nodes="true"
     inkscape:snap-midpoints="true"
     inkscape:snap-others="true"
     inkscape:snap-object-midpoints="true"
     inkscape:snap-center="true"
     inkscape:snap-page="true"
     inkscape:snap-global="true">
    <inkscape:grid
       type="xygrid"
       id="grid4142" />
  </sodipodi:namedview>
  <metadata
     id="metadata4831">
    <rdf:RDF>
      <cc:Work
         rdf:about="">
        <dc:format>image/svg+xml</dc:format>
        <dc:type
           rdf:resource="http://purl.org/dc/dcmitype/StillImage" />
        <dc:title />
      </cc:Work>
    </rdf:RDF>
  </metadata>
  <g
     inkscape:label="Layer 1"
     inkscape:groupmode="layer"
     id="layer1"
     transform="translate(0,-1004.3622)">
    <g
       transform="matrix(0.09482759,0,0,0.09482759,-0.27586304,1004.0863)"
       id="g4807"
       clip-path="url(#clipPath4813)">
      <path
         id="path4795"
         d="m 256,24 c -10,0 -16.56131,4.444363 -22,10 -7.51989,7.681589 -14,30 -14,30 l -84,252 h -34 c -10.63636,0 -20.71454,9.30699 -24,20 L 43,456 c -4.67669,16.03434 -3,31.99999 19,32 h 194 194 c 22,-10e-6 23.67669,-15.96566 19,-32 L 434,336 c -3.28546,-10.69301 -13.36364,-20 -24,-20 H 376 L 292,64 c 0,0 -6.48011,-22.318411 -14,-30 -5.43869,-5.555637 -12,-10 -22,-10 z"
         style="fill:#ff8800"
         inkscape:connector-curvature="0" />
      <path
         inkscape:connector-curvature="0"
         id="path4790"
         d="m 376,316 c 0,0 5.33596,15.99774 8,24 3.86569,11.61172 5.72158,17.44905 -0.0566,24.10156 C 352.00038,395.99957 301.0881,408.013 256,408 210.88287,407.987 160.2209,395.52936 128,364 L 244,480 H 43.53125 c 2.987307,4.87249 8.73663,8 18.46875,8 h 194 194 c 22,-10e-6 23.67669,-15.96566 19,-32 L 434,336 c -3.28546,-10.69301 -13.36364,-20 -24,-20 z"
         style="fill:#f46e00;fill-opacity:1" />
      <path
         id="path3151-2-6-0"
         sodipodi:nodetypes="cacccccssacsccacc"
         inkscape:connector-curvature="0"
         d="m 184,172 c 24,18 46.36799,27 72,27 25.63201,0 48,-9 72,-27 48,0 32,-108 -28,-84 -33.16814,17.49548 -55.99922,15.99974 -88,0 -60,-24 -76,84 -28,84 z m -48,144 c 0,0 -5.33263,16.0004 -8,24 -4.00162,12.00101 -6.03383,18.09576 0,24 32.2209,31.52936 82.88287,43.98701 128,44 45.0881,0.013 96,-12 127.94294,-43.89801 C 389.7212,357.44948 387.86569,351.61172 384,340 c -2.66404,-8.00226 -8,-24 -8,-24 28,0 0,-68 -16,-48 -32,32 -66.85763,40 -104,40 -37.14237,0 -72,-8 -104,-40 -16,-16 -44,48 -16,48 z"
         style="fill:#fafafa" />
      <path
         sodipodi:nodetypes="sssss"
         inkscape:connector-curvature="0"
         id="path4246"
         d="m 152,312 c -16.66494,51.58194 52.97315,57.34558 59.63772,19.87924 L 260,60 c 4.46875,-25.122067 -15.31793,-34.873087 -24,-8 z"
         style="opacity:0.6;fill:#ffffff;fill-opacity:0.31372549;fill-rule:evenodd;stroke:none;stroke-width:1px;stroke-linecap:butt;stroke-linejoin:miter;stroke-opacity:1" />
    </g>
  </g>
  <g
     inkscape:groupmode="layer"
     id="layer3"
     inkscape:label="Sharp">
    <path
       style="color:#000000;font-style:normal;font-variant:normal;font-weight:normal;font-stretch:normal;font-size:26.66666603px;line-height:1.25;font-family:sans-serif;font-variant-ligatures:normal;font-variant-position:normal;font-variant-caps:normal;font-variant-numeric:normal;font-variant-alternates:normal;font-feature-settings:normal;text-indent:0;text-align:start;text-decoration:none;text-decoration-line:none;text-decoration-style:solid;text-decoration-color:#000000;letter-spacing:0px;word-spacing:0px;text-transform:none;writing-mode:lr-tb;direction:ltr;text-orientation:mixed;dominant-baseline:auto;baseline-shift:baseline;text-anchor:start;white-space:normal;shape-padding:0;clip-rule:nonzero;display:inline;overflow:visible;visibility:visible;opacity:1;isolation:auto;mix-blend-mode:normal;color-interpolation:sRGB;color-interpolation-filters:linearRGB;solid-color:#000000;solid-opacity:1;vector-effect:none;fill:#fafafa;fill-opacity:1;fill-rule:nonzero;stroke:none;stroke-width:1.63446331;stroke-linecap:butt;stroke-linejoin:round;stroke-miterlimit:4;stroke-dasharray:none;stroke-dashoffset:0;stroke-opacity:1;color-rendering:auto;image-rendering:auto;shape-rendering:auto;text-rendering:auto;enable-background:accumulate"
       d="m 29.683594,46 0.880859,-3.566406 H 31.6875 L 30.808594,46 h 3.02539 l 0.882813,-3.566406 h 2.927734 c 0.451324,-4.5e-5 0.818314,-0.367034 0.81836,-0.81836 v -1.404296 c -4.6e-5,-0.451325 -0.367036,-0.816362 -0.81836,-0.816407 h -2.164062 l 0.558593,-2.279297 h 2.824219 c 0.451326,-4.4e-5 0.816361,-0.367034 0.816407,-0.818359 v -1.404297 c -4.6e-5,-0.451325 -0.365081,-0.816361 -0.816407,-0.816406 h -2.054687 l 0.83789,-3.375 c 0.128751,-0.516074 -0.261075,-1.016156 -0.792968,-1.015625 h -1.339844 c -0.375443,-3.92e-4 -0.703967,0.254881 -0.794922,0.619141 l -0.9375,3.771484 h -1.125 l 0.839844,-3.375 C 33.624633,30.18595 33.23414,29.6864 32.703125,29.685547 h -1.341797 c -0.375443,-3.92e-4 -0.703965,0.254881 -0.794922,0.619141 l -0.9375,3.771484 h -2.929687 c -0.451326,4.5e-5 -0.816362,0.365081 -0.816407,0.816406 v 1.404297 c 4.4e-5,0.451325 0.365081,0.818315 0.816407,0.818359 h 2.162109 l -0.55664,2.279297 h -2.822266 c -0.451325,4.5e-5 -0.816361,0.36508 -0.816406,0.816407 v 1.404296 c 4.5e-5,0.451326 0.365081,0.818315 0.816406,0.81836 h 2.05664 l -0.630859,2.55664 h -0.002 L 26.65625,46 Z M 31.875,37.095703 h 1.166016 l -0.572266,2.318359 h -1.167969 z"
       id="path827"
       inkscape:connector-curvature="0"
       sodipodi:nodetypes="cccccccccccccccccccccccccccccccccccccccccccccccc" />
    <g
       aria-label="#"
       style="font-style:normal;font-weight:normal;font-size:40px;line-height:1.25;font-family:sans-serif;letter-spacing:0px;word-spacing:0px;fill:#000000;fill-opacity:1;stroke:none;stroke-width:0.30000001;stroke-miterlimit:4;stroke-dasharray:none;stroke-opacity:1"
       id="text3753"
       transform="matrix(1.0896422,0,0,1.0896422,-4.2650416,-3.1020008)">
      <path
         d="m 39.579667,36.15881 h -3.179726 l -0.878482,3.590321 h 2.941007 v 1.289077 h -3.275212 l -0.993067,4.020013 h -1.231785 l 0.993066,-4.020013 h -2.578155 l -0.993067,4.020013 h -1.231785 l 0.993067,-4.020013 h -2.845519 v -1.289077 h 3.179725 l 0.878483,-3.590322 H 28.41721 v -1.289077 h 3.275211 l 1.002617,-4.029561 h 1.231785 l -1.002616,4.029561 h 2.578155 l 1.002616,-4.029561 h 1.231786 l -1.002617,4.029561 h 2.84552 z m -4.382864,-0.0191 h -2.616351 l -0.89758,3.628514 h 2.61635 z"
         style="font-size:26.66666603px;fill:#8e59cb;fill-opacity:1;stroke:none;stroke-width:0.36700001;stroke-miterlimit:4;stroke-dasharray:none;stroke-opacity:1"
         id="path7668"
         inkscape:connector-curvature="0" />
    </g>
  </g>
</svg>
